<!DOCTYPE svg PUBLIC "-//W3C//DTD SVG 1.1//EN" "http://www.w3.org/Graphics/SVG/1.1/DTD/svg11.dtd">
<!-- Uploaded to: SVG Repo, www.svgrepo.com, Transformed by: SVG Repo Mixer Tools -->
<svg height="64px" width="64px" version="1.1" id="Layer_1" xmlns="http://www.w3.org/2000/svg" xmlns:xlink="http://www.w3.org/1999/xlink" viewBox="0 0 512 512" xml:space="preserve" fill="#000000">
<g id="SVGRepo_bgCarrier" stroke-width="0"/>
<g id="SVGRepo_tracerCarrier" stroke-linecap="round" stroke-linejoin="round"/>
<g id="SVGRepo_iconCarrier"> <g> <polygon style="fill:#00E588;" points="501.333,117.337 10.667,117.337 10.667,352.001 256,458.667 501.333,352.001 "/> <g> <path style="fill:#1E9ED1;" d="M85.333,117.337L85.333,117.337c17.6,0,32-14.401,32-32l0,0c0-17.601-14.4-32.003-32-32.003l0,0 c-17.6,0-32.002,14.402-32.002,32.002l0,0C53.331,102.936,67.733,117.337,85.333,117.337z"/> <path style="fill:#1E9ED1;" d="M426.669,117.337L426.669,117.337c17.6,0,31.996-14.401,31.996-32l0,0 c0-17.6-14.396-32.002-31.996-32.002l0,0c-17.6,0-32,14.402-32,32.002l0,0C394.669,102.936,409.069,117.337,426.669,117.337z"/> </g> </g> <g> <path style="fill:#000003;" d="M311.681,285.247c8.806,2.899,19.314,4.353,31.519,4.353c14.411,0,24.64-2.825,30.695-8.48 c6.054-5.657,9.079-13.834,9.079-24.541c0-9.006-1.775-15.585-5.325-19.735c-3.554-4.154-10.236-7.582-20.039-10.283l-13.209-3.302 c-5.202-1.302-8.679-3.025-10.429-5.178c-1.753-2.149-2.629-4.826-2.629-8.03c0-4.101,1.154-7.278,3.454-9.532 c2.3-2.252,6.454-3.376,12.457-3.376c7.206,0,14.358,0.651,21.462,1.953c2.202,0.499,3.954,0.751,5.252,0.751 c2.002,0,3.252-1.155,3.755-3.455c1.198-4.401,1.802-7.353,1.802-8.854c0-2.404-1.202-3.954-3.602-4.653 c-6.606-2.1-15.712-3.151-27.318-3.151c-13.707,0-23.563,2.8-29.567,8.403c-6.002,5.603-9.004,13.559-9.004,23.862 c0,8.607,1.973,15.312,5.927,20.113c3.954,4.804,10.079,8.207,18.385,10.208l13.056,3.151c5.906,1.501,9.736,3.229,11.486,5.179 c1.748,1.952,2.625,4.83,2.625,8.633c0,4.002-1.225,7.179-3.677,9.527c-2.452,2.352-7.178,3.529-14.183,3.529 c-8.406,0-16.21-1.098-23.417-3.302c-2.698-0.799-4.553-1.203-5.55-1.203c-2.4,0-4.002,1.302-4.804,3.906 c-1.298,4.906-1.95,7.852-1.95,8.854C307.931,282.895,309.181,284.445,311.681,285.247z"/> <path style="fill:#000003;" d="M216.225,278.417c3.902,4.153,8.529,7.057,13.886,8.706c5.353,1.654,12.031,2.478,20.035,2.478 c8.206,0,15.06-0.851,20.564-2.553c5.502-1.701,10.254-4.626,14.256-8.78c4.002-4.155,6.907-9.856,8.706-17.109 c1.802-7.258,2.7-16.337,2.7-27.244c0-9.206-0.625-17.009-1.875-23.411c-1.25-6.406-2.977-11.611-5.177-15.613 c-2.201-4.001-5.252-7.126-9.158-9.379c-3.902-2.252-8.052-3.776-12.457-4.579c-4.402-0.798-9.856-1.198-16.358-1.198 c-7.106,0-13.261,0.747-18.465,2.249c-5.2,1.501-10.004,4.154-14.404,7.955c-4.406,3.802-7.731,9.383-9.983,16.736 s-3.377,16.484-3.377,27.392s0.877,19.986,2.627,27.239C209.498,268.564,212.325,274.267,216.225,278.417z M229.434,210.877 c2-5.551,4.652-9.253,7.956-11.106c3.302-1.849,7.756-2.778,13.358-2.778c6.202,0,10.929,0.903,14.181,2.704 c3.254,1.801,5.702,5.377,7.356,10.734c1.648,5.351,2.477,13.281,2.477,23.785c0,8.109-0.525,14.735-1.579,19.891 c-1.05,5.152-2.7,9.028-4.953,11.628c-2.252,2.604-4.727,4.353-7.431,5.255c-2.7,0.899-6.15,1.35-10.356,1.35 c-4.201,0-7.677-0.473-10.429-1.423c-2.752-0.956-5.204-2.779-7.353-5.483c-2.153-2.699-3.729-6.601-4.732-11.706 c-0.998-5.104-1.502-11.659-1.502-19.662C226.429,224.163,227.434,216.434,229.434,210.877z"/> <path style="fill:#000003;" d="M118.671,281.047c0-2.5-0.75-5.803-2.252-9.909c-0.5-1.398-1.45-2.1-2.852-2.1 c-1.198,0-2.852,0.299-4.951,0.902c-6.806,1.602-13.408,2.4-19.814,2.4c-9.705,0-16.459-2.951-20.26-8.854 c-3.802-5.902-5.702-15.712-5.702-29.418c0-13.607,1.9-23.19,5.702-28.741c3.802-5.555,10.857-8.334,21.165-8.334 c6.602,0,12.057,0.403,16.358,1.202c2.3,0.499,4.002,0.751,5.104,0.751c1.602,0,2.601-0.651,2.998-1.953 c1.502-3.702,2.254-7.401,2.254-11.107c0-1.996-1.25-3.298-3.75-3.901c-5.604-1.502-14.011-2.249-25.217-2.249 c-16.911,0-28.789,4.375-35.648,13.135c-6.852,8.754-10.282,23.237-10.282,43.45c0,19.61,3.502,33.395,10.507,41.35 c7.006,7.951,17.462,11.931,31.373,11.931c12.604,0,23.158-1.501,31.667-4.501C117.469,284.198,118.671,282.848,118.671,281.047z"/> <path style="fill:#000003;" d="M148.688,287.647h46.979c2.8,0,4.202-1.198,4.202-3.602v-10.356c0-2.7-1.402-4.049-4.202-4.049 h-36.47c-3.702,0-5.556-1.853-5.556-5.556v-78.198c0-2.899-1.25-4.348-3.75-4.348h-12.907c-2.704,0-4.054,1.501-4.054,4.5v86.302 C132.929,282.543,138.181,287.647,148.688,287.647z"/> <path style="fill:#000003;" d="M402.638,198.195v73.395c0,5.802,1.327,9.93,3.975,12.382c2.652,2.452,6.684,3.676,12.083,3.676 h47.578c2.804,0,4.206-1.198,4.206-3.602v-10.356c0-2.7-1.402-4.049-4.206-4.049h-37.221c-2.102,0-3.577-0.452-4.427-1.355 c-0.852-0.899-1.277-2.401-1.277-4.501v-21.915h36.623c2.804,0,4.202-1.198,4.202-3.602v-10.503c0-2.704-1.398-4.054-4.202-4.054 h-36.623v-18.464c0-3.698,1.602-5.551,4.804-5.551h35.573c2.8,0,4.202-1.15,4.202-3.451v-10.508c0-2.7-1.402-4.054-4.202-4.054 h-45.029C407.991,181.685,402.638,187.188,402.638,198.195z"/> <path style="fill:#000003;" d="M501.333,106.67h-37.742c3.642-6.282,5.74-13.565,5.74-21.333c0-23.529-19.139-42.669-42.662-42.669 c-23.527,0-42.667,19.14-42.667,42.669c0,7.769,2.098,15.052,5.74,21.333H122.26c3.642-6.282,5.74-13.565,5.74-21.333 c0-23.529-19.141-42.67-42.667-42.67c-23.527,0-42.669,19.14-42.669,42.669c0,7.769,2.098,15.052,5.742,21.333h-37.74 C4.777,106.669,0,111.446,0,117.336v234.665c0,4.247,2.518,8.089,6.415,9.782l245.333,106.666c1.356,0.59,2.804,0.884,4.252,0.884 c1.447,0,2.898-0.294,4.254-0.884l245.333-106.666c3.893-1.694,6.413-5.535,6.413-9.782V117.337 C512,111.446,507.225,106.67,501.333,106.67z M405.336,85.337c0-11.764,9.569-21.335,21.333-21.335 c11.76,0,21.329,9.571,21.329,21.335c0,11.763-9.569,21.333-21.329,21.333C414.905,106.67,405.336,97.1,405.336,85.337z M63.998,85.337c0-11.765,9.571-21.337,21.335-21.337c11.762,0,21.333,9.571,21.333,21.335c0,11.763-9.571,21.333-21.333,21.333 C73.569,106.67,63.998,97.1,63.998,85.337z M490.667,345.007L256,447.035L21.333,345.007V128.004h469.333V345.007z"/> <path style="fill:#000003;" d="M345.336,361.671L256,400.514L129.473,345.5c-5.401-2.347-11.685,0.127-14.035,5.53 c-2.348,5.402,0.127,11.686,5.529,14.035l130.782,56.863c1.356,0.59,2.804,0.884,4.252,0.884c1.447,0,2.898-0.294,4.254-0.884 l93.587-40.691c5.402-2.349,7.879-8.634,5.53-14.035C357.021,361.797,350.731,359.321,345.336,361.671z"/> <path style="fill:#000003;" d="M383.215,345.389l-5.934,2.391c-5.465,2.202-8.109,8.417-5.906,13.881 c1.675,4.157,5.673,6.683,9.895,6.683c1.329,0,2.679-0.25,3.985-0.778l5.934-2.391c5.465-2.202,8.109-8.417,5.904-13.881 C394.892,345.83,388.675,343.188,383.215,345.389z"/> </g> </g>
</svg>